<?xml version="1.0" standalone="no"?>
<!DOCTYPE svg PUBLIC "-//W3C//DTD SVG 20010904//EN"
 "http://www.w3.org/TR/2001/REC-SVG-20010904/DTD/svg10.dtd">
<svg version="1.0" xmlns="http://www.w3.org/2000/svg"
 width="244.000000pt" height="206.000000pt" viewBox="0 0 244.000000 206.000000"
 preserveAspectRatio="xMidYMid meet">

<g transform="translate(0.000000,206.000000) scale(0.100000,-0.100000)"
fill="#000000" stroke="none">
<path d="M122 1957 c-29 -29 -52 -61 -52 -72 0 -11 79 -98 197 -217 l197 -198
-33 -34 c-26 -27 -32 -40 -27 -60 10 -42 43 -43 85 -2 l37 36 34 -35 c19 -19
38 -35 42 -35 17 0 7 38 -17 60 -14 13 -25 28 -25 34 0 6 19 30 42 53 l42 43
26 -25 c24 -23 28 -24 40 -10 11 13 9 20 -10 40 l-24 25 32 33 c34 35 39 56
20 75 -20 20 -45 14 -83 -19 l-35 -31 -192 196 c-152 154 -198 197 -218 196
-17 0 -43 -17 -78 -53z m168 -122 l0 -45 -45 0 -45 0 0 45 0 45 45 0 45 0 0
-45z m108 -107 c-3 -43 -3 -43 -45 -46 l-43 -3 0 45 0 46 46 0 45 0 -3 -42z
m102 -108 l0 -40 -45 0 -45 0 0 40 0 40 45 0 45 0 0 -40z"/>
<path d="M1104 1646 c-161 -31 -257 -80 -353 -181 -77 -82 -127 -174 -157
-290 -21 -84 -24 -296 -5 -395 60 -306 222 -553 426 -649 170 -80 371 -71 530
24 212 127 373 428 392 733 7 101 15 111 58 68 24 -24 45 -82 45 -124 0 -35
39 -109 68 -128 22 -15 92 -37 92 -29 0 1 -7 22 -16 46 -12 34 -14 65 -9 135
5 62 3 98 -4 113 -14 25 -13 25 32 6 48 -20 85 -19 127 3 46 25 47 36 6 50
-22 8 -61 42 -102 87 -93 105 -146 115 -260 51 -26 -14 -48 -25 -49 -24 -1 2
-7 28 -14 58 -34 156 -158 313 -301 382 -41 20 -104 43 -140 53 -89 22 -277
28 -366 11z m-124 -642 c149 -27 345 -29 503 -5 77 12 163 21 192 21 48 0 56
-3 80 -32 25 -29 27 -38 23 -99 -3 -54 -9 -73 -32 -103 -64 -84 -123 -101
-391 -112 -182 -7 -418 8 -488 32 -48 16 -110 75 -127 120 -6 14 -10 52 -10
85 0 50 4 64 25 84 20 21 34 25 82 25 32 0 96 -7 143 -16z"/>
<path d="M834 925 c-4 -8 -4 -21 -1 -28 6 -17 264 -110 284 -103 8 3 13 15 11
28 -2 18 -26 30 -133 70 -143 53 -153 55 -161 33z"/>
<path d="M1518 895 c-64 -24 -122 -46 -127 -50 -15 -9 -14 -45 2 -51 7 -2 74
17 148 44 121 45 134 52 134 73 0 36 -25 33 -157 -16z"/>
</g>
</svg>
